<svg width="36" height="37" viewBox="0 0 36 37" fill="none" xmlns="http://www.w3.org/2000/svg">
<path d="M18 0.902344C13.1152 0.902344 12.501 0.924844 10.5817 1.01034C8.6625 1.10034 7.35525 1.40184 6.21 1.84734C5.00871 2.29919 3.92061 3.00795 3.02175 3.92409C2.10617 4.82341 1.39749 5.91138 0.945 7.11234C0.4995 8.25534 0.19575 9.56484 0.108 11.4773C0.0225 13.4011 0 14.0131 0 18.9046C0 23.7916 0.0225 24.4036 0.108 26.3228C0.198 28.2398 0.4995 29.5471 0.945 30.6923C1.40625 31.8758 2.0205 32.8793 3.02175 33.8806C4.02075 34.8818 5.02425 35.4983 6.20775 35.9573C7.35525 36.4028 8.66025 36.7066 10.5773 36.7943C12.4988 36.8798 13.1108 36.9023 18 36.9023C22.8892 36.9023 23.499 36.8798 25.4205 36.7943C27.3353 36.7043 28.647 36.4028 29.7922 35.9573C30.9928 35.5053 32.0801 34.7965 32.9782 33.8806C33.9795 32.8793 34.5938 31.8758 35.055 30.6923C35.4982 29.5471 35.802 28.2398 35.892 26.3228C35.9775 24.4036 36 23.7916 36 18.9023C36 14.0131 35.9775 13.4011 35.892 11.4796C35.802 9.56484 35.4982 8.25534 35.055 7.11234C34.6026 5.91135 33.8939 4.82336 32.9782 3.92409C32.0797 3.00761 30.9915 2.2988 29.79 1.84734C28.6425 1.40184 27.333 1.09809 25.4182 1.01034C23.4967 0.924844 22.887 0.902344 17.9955 0.902344H18.0023H18ZM16.3867 4.14684H18.0023C22.8083 4.14684 23.3775 4.16259 25.2743 4.25034C27.0292 4.32909 27.9832 4.62384 28.6178 4.86909C29.457 5.19534 30.0578 5.58684 30.6877 6.21684C31.3177 6.84684 31.707 7.44534 32.0333 8.28684C32.2808 8.91909 32.5732 9.87309 32.652 11.6281C32.7397 13.5248 32.7578 14.0941 32.7578 18.8978C32.7578 23.7016 32.7397 24.2731 32.652 26.1698C32.5732 27.9248 32.2785 28.8766 32.0333 29.5111C31.7447 30.2927 31.2841 30.9993 30.6855 31.5788C30.0555 32.2088 29.457 32.5981 28.6155 32.9243C27.9855 33.1718 27.0315 33.4643 25.2743 33.5453C23.3775 33.6308 22.8083 33.6511 18.0023 33.6511C13.1963 33.6511 12.6248 33.6308 10.728 33.5453C8.973 33.4643 8.02125 33.1718 7.38675 32.9243C6.60487 32.6362 5.89753 32.1764 5.31675 31.5788C4.71769 30.9984 4.25638 30.2911 3.96675 29.5088C3.7215 28.8766 3.42675 27.9226 3.348 26.1676C3.2625 24.2708 3.2445 23.7016 3.2445 18.8933C3.2445 14.0873 3.2625 13.5203 3.348 11.6236C3.429 9.86859 3.7215 8.91459 3.969 8.28009C4.29525 7.44084 4.68675 6.84009 5.31675 6.21009C5.94675 5.58009 6.54525 5.19084 7.38675 4.86459C8.02125 4.61709 8.973 4.32459 10.728 4.24359C12.3885 4.16709 13.032 4.14459 16.3867 4.14234V4.14684ZM27.6097 7.13484C27.3261 7.13484 27.0452 7.19071 26.7832 7.29926C26.5211 7.40781 26.283 7.56692 26.0824 7.76749C25.8818 7.96807 25.7227 8.20618 25.6142 8.46825C25.5056 8.73031 25.4497 9.01119 25.4497 9.29484C25.4497 9.5785 25.5056 9.85938 25.6142 10.1214C25.7227 10.3835 25.8818 10.6216 26.0824 10.8222C26.283 11.0228 26.5211 11.1819 26.7832 11.2904C27.0452 11.399 27.3261 11.4548 27.6097 11.4548C28.1826 11.4548 28.732 11.2273 29.1371 10.8222C29.5422 10.4171 29.7698 9.86771 29.7698 9.29484C29.7698 8.72198 29.5422 8.17257 29.1371 7.76749C28.732 7.36241 28.1826 7.13484 27.6097 7.13484ZM18.0023 9.65934C16.7762 9.64021 15.5585 9.86519 14.4202 10.3212C13.2819 10.7771 12.2457 11.455 11.3718 12.3153C10.498 13.1756 9.80407 14.2011 9.33039 15.3322C8.85672 16.4632 8.61278 17.6772 8.61278 18.9035C8.61278 20.1297 8.85672 21.3437 9.33039 22.4748C9.80407 23.6058 10.498 24.6313 11.3718 25.4916C12.2457 26.3519 13.2819 27.0298 14.4202 27.4858C15.5585 27.9417 16.7762 28.1667 18.0023 28.1476C20.429 28.1097 22.7435 27.1191 24.4462 25.3897C26.1489 23.6602 27.1033 21.3305 27.1033 18.9035C27.1033 16.4765 26.1489 14.1468 24.4462 12.4173C22.7435 10.6878 20.429 9.6972 18.0023 9.65934ZM18.0023 12.9016C19.5937 12.9016 21.1201 13.5338 22.2454 14.6592C23.3708 15.7845 24.003 17.3108 24.003 18.9023C24.003 20.4938 23.3708 22.0202 22.2454 23.1455C21.1201 24.2709 19.5937 24.9031 18.0023 24.9031C16.4108 24.9031 14.8844 24.2709 13.7591 23.1455C12.6337 22.0202 12.0015 20.4938 12.0015 18.9023C12.0015 17.3108 12.6337 15.7845 13.7591 14.6592C14.8844 13.5338 16.4108 12.9016 18.0023 12.9016Z" fill="#4B27DC"/>
</svg>
