<svg width="20" height="21" viewBox="0 0 20 21" fill="none" xmlns="http://www.w3.org/2000/svg">
<g id="tabler:mail">
<g id="Group">
<path id="Vector" d="M2.5 6.73576C2.5 6.29373 2.67559 5.86981 2.98816 5.55725C3.30072 5.24469 3.72464 5.06909 4.16667 5.06909H15.8333C16.2754 5.06909 16.6993 5.24469 17.0118 5.55725C17.3244 5.86981 17.5 6.29373 17.5 6.73576V15.0691C17.5 15.5111 17.3244 15.935 17.0118 16.2476C16.6993 16.5602 16.2754 16.7358 15.8333 16.7358H4.16667C3.72464 16.7358 3.30072 16.5602 2.98816 16.2476C2.67559 15.935 2.5 15.5111 2.5 15.0691V6.73576Z" stroke="#6442EF" stroke-width="1.66667" stroke-linecap="round" stroke-linejoin="round"/>
<path id="Vector_2" d="M2.5 6.73584L10 11.7358L17.5 6.73584" stroke="#6442EF" stroke-width="1.66667" stroke-linecap="round" stroke-linejoin="round"/>
</g>
</g>
</svg>
